<svg height="60" viewBox="0 0 60 60" width="60" xmlns="http://www.w3.org/2000/svg"><g fill="none" fill-rule="evenodd"><path d="m.11229034 30c0-16.5685433 13.23036026-30 29.55083866-30 16.3204783 0 29.5508386 13.4314567 29.5508386 30s-13.2303603 30-29.5508386 30c-16.3204784 0-29.55083866-13.4314567-29.55083866-30zm0 0" fill="#333"/><path d="m37.5761259 29.4762161c-.0366351-3.7993248 2.9941665-5.6214094 3.1296087-5.7119365-1.7029928-2.5787034-4.3557227-2.9319641-5.3011-2.9728038-2.2576148-.2365423-4.4051545 1.3754257-5.5509772 1.3754257-1.1428782 0-2.9109307-1.3404453-4.7832828-1.3052306-2.4607214.0378515-4.7296608 1.4806012-5.9967132 3.7611219-2.5566974 4.5907483-.6547315 11.3918223 1.8371326 15.1150341 1.2176205 1.8223189 2.6695469 3.8694028 4.5758728 3.796278 1.8357736-.0758201 2.5299713-1.2292347 4.7494789-1.2292347 2.2195075 0 2.8432663 1.2292347 4.7861139 1.1915004 1.9754059-.0379686 3.2270002-1.8573578 4.436184-3.6854189 1.3983044-2.1142907 1.9740469-4.1612574 2.0079641-4.2663743-.0438829-.0206836-3.852118-1.5303471-3.8902818-6.0683613zm-3.6503137-11.1495378c1.0117394-1.2702502 1.6946692-3.0325693 1.5083796-4.7906697-1.4574189.0614061-3.2240558 1.004587-4.2696558 2.2719661-.9382994 1.1242936-1.7595024 2.9187219-1.5394655 4.6416662 1.6270047.1314254 3.2878133-.8555835 4.3007417-2.1229626zm0 0" fill="#fff"/><path d="m59.2139676 30c0 16.5685433-13.2303603 30-29.5508386 30-6.0528788 0-11.6807143-1.8474866-16.3660949-5.0172246l33.8602213-49.16336437c7.311898 5.46123927 12.0567122 14.25838627 12.0567122 24.18058897zm0 0" fill="#000" fill-opacity=".08"/></g></svg>